<svg width="247" height="142" viewBox="0 0 247 142" fill="none" xmlns="http://www.w3.org/2000/svg">
<g id="Group 358">
<rect id="Rectangle 1" x="1" y="10" width="191" height="26" fill="#FFC800"/>
<g id="BeeFREE &#226;&#128;&#148; &#209;&#128;&#208;&#176;&#208;&#177;&#208;&#190;&#209;&#130;&#208;&#176;&#208;&#185; &#209;&#131;&#208;&#180;&#208;&#176;&#208;&#187;&#208;&#181;&#208;&#189;&#208;&#189;&#208;&#190;">
<path d="M13.9712 0C17.6761 0 20.4634 0.900876 22.3332 2.70263C24.2029 4.46973 25.1378 6.79122 25.1378 9.6671C25.1378 11.3996 24.7569 12.8895 23.9952 14.1368C23.2681 15.3842 22.1601 16.3544 20.6712 17.0474C22.6102 17.4978 24.1164 18.4506 25.1898 19.9059C26.2631 21.3265 26.7998 23.0763 26.7998 25.1552C26.7998 28.3083 25.7784 30.803 23.7355 32.6395C21.6926 34.4412 18.8361 35.3421 15.1658 35.3421H3.01238V0H13.9712ZM13.3999 15.0204C15.4774 15.0204 17.0009 14.6566 17.9704 13.9289C18.9746 13.1667 19.4766 11.9886 19.4766 10.3947C19.4766 8.76622 18.9746 7.6228 17.9704 6.96447C17.0009 6.30614 15.4774 5.97697 13.3999 5.97697H8.46584V15.0204H13.3999ZM14.6464 29.3651C16.8278 29.3651 18.4552 28.9493 19.5286 28.1177C20.6019 27.2862 21.1386 26.0215 21.1386 24.3237C21.1386 22.5912 20.6019 21.3612 19.5286 20.6335C18.4552 19.9059 16.8278 19.5421 14.6464 19.5421H8.46584V29.3651H14.6464Z" fill="black"/>
<path d="M54.1389 27.2342C53.7927 28.7934 53.1521 30.2313 52.2172 31.548C51.2823 32.83 50.0185 33.8695 48.4258 34.6664C46.8676 35.4634 44.9286 35.8618 42.6087 35.8618C40.2542 35.8618 38.1594 35.2901 36.3243 34.1467C34.5238 33.0033 33.1042 31.4267 32.0654 29.4171C31.0613 27.4074 30.5592 25.1379 30.5592 22.6085C30.5592 20.0445 31.0786 17.775 32.1173 15.8C33.1561 13.7903 34.5757 12.2138 36.3762 11.0704C38.2114 9.92697 40.3235 9.35526 42.7126 9.35526C45.1018 9.35526 47.1966 9.92697 48.9971 11.0704C50.7976 12.1792 52.1999 13.7384 53.204 15.748C54.2082 17.7577 54.7102 20.1138 54.7102 22.8164C54.7102 22.9204 54.6929 23.1109 54.6583 23.3881C54.6583 23.6307 54.6583 23.8039 54.6583 23.9079H35.8049C36.0127 26.0215 36.7225 27.6673 37.9344 28.8454C39.1809 30.0234 40.7736 30.6125 42.7126 30.6125C44.4785 30.6125 45.8981 30.3006 46.9715 29.677C48.0795 29.0533 48.8759 28.239 49.3606 27.2342H54.1389ZM42.7126 14.6046C40.8775 14.6046 39.3713 15.1243 38.194 16.1638C37.0168 17.1686 36.255 18.5892 35.9088 20.4256H49.4126C49.1702 18.6932 48.4777 17.2899 47.3351 16.2158C46.2271 15.1417 44.6863 14.6046 42.7126 14.6046Z" fill="black"/>
<path d="M81.6293 27.2342C81.2831 28.7934 80.6425 30.2313 79.7076 31.548C78.7728 32.83 77.509 33.8695 75.9162 34.6664C74.3581 35.4634 72.4191 35.8618 70.0992 35.8618C67.7447 35.8618 65.6499 35.2901 63.8147 34.1467C62.0142 33.0033 60.5946 31.4267 59.5558 29.4171C58.5517 27.4074 58.0496 25.1379 58.0496 22.6085C58.0496 20.0445 58.569 17.775 59.6078 15.8C60.6465 13.7903 62.0662 12.2138 63.8667 11.0704C65.7018 9.92697 67.8139 9.35526 70.2031 9.35526C72.5922 9.35526 74.687 9.92697 76.4875 11.0704C78.288 12.1792 79.6903 13.7384 80.6945 15.748C81.6986 17.7577 82.2006 20.1138 82.2006 22.8164C82.2006 22.9204 82.1833 23.1109 82.1487 23.3881C82.1487 23.6307 82.1487 23.8039 82.1487 23.9079H63.2953C63.5031 26.0215 64.2129 27.6673 65.4248 28.8454C66.6713 30.0234 68.264 30.6125 70.2031 30.6125C71.9689 30.6125 73.3886 30.3006 74.4619 29.677C75.5699 29.0533 76.3663 28.239 76.8511 27.2342H81.6293ZM70.2031 14.6046C68.3679 14.6046 66.8617 15.1243 65.6845 16.1638C64.5072 17.1686 63.7455 18.5892 63.3992 20.4256H76.903C76.6606 18.6932 75.9681 17.2899 74.8255 16.2158C73.7175 15.1417 72.1767 14.6046 70.2031 14.6046Z" fill="black"/>
<path d="M87.4618 35.3421V0H108.393V6.02894H93.0191V15.5401H104.965V20.6855H93.0191V35.3421H87.4618Z" fill="black"/>
<path d="M131.543 35.3421L120.481 21.3612H119.494V35.3421H113.989V0H124.792C127.285 0 129.449 0.433113 131.284 1.29934C133.119 2.13092 134.539 3.36096 135.543 4.98947C136.581 6.58333 137.101 8.55833 137.101 10.9145C137.101 14.0329 136.218 16.4583 134.452 18.1908C132.686 19.9232 130.297 20.9281 127.285 21.2052L138.347 35.3421H131.543ZM119.494 6.02894V16.7355H124.688C126.834 16.7355 128.479 16.2851 129.622 15.3842C130.764 14.4833 131.336 13.1493 131.336 11.3822C131.336 9.61512 130.764 8.28113 129.622 7.38026C128.479 6.47938 126.834 6.02894 124.688 6.02894H119.494Z" fill="black"/>
<path d="M143.051 35.3421V0H163.982V6.02894H148.609V14.5526H160.554V19.646H148.609V29.3131H163.982V35.3421H143.051Z" fill="black"/>
<path d="M169.832 35.3421V0H190.762V6.02894H175.389V14.5526H187.335V19.646H175.389V29.3131H190.762V35.3421H169.832Z" fill="black"/>
<path d="M247 23.596H208.566V18.7105H247V23.596Z" fill="black"/>
<path d="M7.5829 62.3204C8.2754 60.7958 9.31415 59.6004 10.6992 58.7342C12.0842 57.8333 13.7981 57.3829 15.841 57.3829C18.1262 57.3829 20.1345 57.92 21.8657 58.9941C23.597 60.0336 24.9474 61.5235 25.9169 63.4638C26.8864 65.4042 27.3711 67.7083 27.3711 70.3763C27.3711 73.0096 26.8864 75.3485 25.9169 77.3928C24.9474 79.4024 23.597 80.9789 21.8657 82.1224C20.1691 83.2311 18.1782 83.7855 15.8929 83.7855C13.9885 83.7855 12.3612 83.4564 11.0108 82.798C9.69503 82.105 8.63896 81.0656 7.84258 79.6796V93.7125H2.54494V57.8507H7.5829V62.3204ZM14.7503 78.1724C17.174 78.1724 18.9919 77.4621 20.2037 76.0414C21.4502 74.6208 22.0735 72.7498 22.0735 70.4283C22.0735 68.0721 21.4502 66.2531 20.2037 64.9711C18.9919 63.6544 17.1567 62.9961 14.6984 62.9961C13.0017 62.9961 11.5648 63.2386 10.3875 63.7237C9.2449 64.2088 8.39659 64.9884 7.84258 66.0625V75.2099C8.39659 76.284 9.2449 77.0463 10.3875 77.4967C11.5648 77.9471 13.019 78.1724 14.7503 78.1724Z" fill="black"/>
<path d="M50.6506 83.4217C49.3002 83.4217 48.2095 83.0752 47.3785 82.3822C46.5475 81.6546 46.0454 80.5632 45.8723 79.1079C45.1105 80.5285 44.1237 81.6199 42.9119 82.3822C41.7 83.1445 40.2284 83.5256 38.4972 83.5256C36.2465 83.5256 34.4287 82.9193 33.0437 81.7066C31.6933 80.4939 31.0181 78.7614 31.0181 76.5092C31.0181 75.0193 31.2951 73.7893 31.8491 72.8191C32.4378 71.8489 33.2861 71.0346 34.3941 70.3763C35.5021 69.6833 36.8525 69.0423 38.4452 68.4533L45.4568 65.8546C45.3183 64.6419 44.8162 63.8103 43.9506 63.3599C43.085 62.9094 42.0462 62.6842 40.8343 62.6842C39.484 62.6842 38.376 62.9268 37.5103 63.4118C36.6447 63.8969 36.108 64.6592 35.9003 65.6987H31.3298C31.5721 63.8276 32.1434 62.2684 33.0437 61.0211C33.944 59.7737 35.0866 58.8555 36.4716 58.2665C37.8566 57.6428 39.3801 57.3309 41.0421 57.3309C43.9506 57.3309 46.2878 58.1105 48.0537 59.6697C49.8196 61.1943 50.6852 63.5678 50.6506 66.7901L50.4947 75.8335C50.4947 76.7691 50.6332 77.4274 50.9102 77.8085C51.2219 78.155 51.7066 78.3283 52.3645 78.3283H53.1436V83.3178C52.7627 83.3524 52.3472 83.3697 51.8971 83.3697C51.4469 83.4044 51.0314 83.4217 50.6506 83.4217ZM36.16 75.3658C36.16 76.336 36.5235 77.0636 37.2506 77.5487C38.0124 77.9991 38.9992 78.2243 40.2111 78.2243C41.3537 78.2243 42.3925 78.0684 43.3274 77.7566C44.2622 77.4101 44.9547 76.977 45.4049 76.4572L45.5087 69.4408L40.8863 71.2079C39.1897 71.8662 37.9778 72.4899 37.2506 73.0789C36.5235 73.6333 36.16 74.3956 36.16 75.3658Z" fill="black"/>
<path d="M70.1069 58.4743C72.3575 58.4743 74.2965 58.9768 75.9239 59.9816C77.5859 60.9518 78.867 62.355 79.7673 64.1914C80.7022 66.0279 81.1696 68.2107 81.1696 70.7401C81.1696 73.2695 80.6675 75.5217 79.6634 77.4967C78.6939 79.4717 77.2743 81.0309 75.4045 82.1743C73.5348 83.2831 71.2668 83.8375 68.6007 83.8375C65.9692 83.8375 63.7012 83.2311 61.7969 82.0184C59.8925 80.8057 58.4382 79.0039 57.4341 76.6132C56.43 74.1877 55.9279 71.1732 55.9279 67.5697C55.9279 63.7583 56.2915 60.5013 57.0186 57.7987C57.7457 55.0614 58.9749 52.8958 60.7062 51.302C62.4374 49.6735 64.8092 48.6513 67.8216 48.2355L78.8324 46.7283V52.2375L68.6526 53.7967C66.8868 54.0739 65.4844 54.5937 64.4457 55.3559C63.4069 56.0836 62.6452 57.0884 62.1604 58.3704C61.7103 59.6524 61.3987 61.229 61.2256 63.1C62.1951 61.5408 63.4416 60.38 64.9651 59.6178C66.4886 58.8555 68.2025 58.4743 70.1069 58.4743ZM68.9123 63.7237C67.3196 63.7237 65.8653 63.9662 64.5496 64.4513C63.2684 64.9018 62.2297 65.6294 61.4333 66.6342V69.5447C61.4333 72.3167 62.0566 74.4649 63.3031 75.9895C64.5842 77.4794 66.3501 78.2243 68.6007 78.2243C70.8513 78.2243 72.6172 77.5833 73.8983 76.3013C75.2141 74.9846 75.872 73.1309 75.872 70.7401C75.872 68.3493 75.2487 66.5822 74.0022 65.4388C72.7557 64.2954 71.0591 63.7237 68.9123 63.7237Z" fill="black"/>
<path d="M97.1972 57.3309C99.7595 57.3309 101.976 57.92 103.845 59.098C105.75 60.2415 107.221 61.818 108.26 63.8276C109.299 65.8026 109.818 68.0375 109.818 70.5322C109.818 73.027 109.299 75.2792 108.26 77.2888C107.221 79.2985 105.75 80.8923 103.845 82.0704C101.976 83.2485 99.7595 83.8375 97.1972 83.8375C94.635 83.8375 92.4017 83.2485 90.4973 82.0704C88.6275 80.8923 87.1733 79.2985 86.1345 77.2888C85.0958 75.2792 84.5764 73.027 84.5764 70.5322C84.5764 68.0375 85.0958 65.8026 86.1345 63.8276C87.1733 61.818 88.6275 60.2415 90.4973 59.098C92.4017 57.92 94.635 57.3309 97.1972 57.3309ZM97.1972 63.048C94.9812 63.048 93.198 63.741 91.8477 65.127C90.5319 66.4783 89.874 68.28 89.874 70.5322C89.874 72.8191 90.5319 74.6555 91.8477 76.0414C93.198 77.4274 94.9812 78.1204 97.1972 78.1204C99.4132 78.1204 101.179 77.4274 102.495 76.0414C103.845 74.6555 104.52 72.8191 104.52 70.5322C104.52 68.28 103.845 66.4783 102.495 65.127C101.179 63.741 99.4132 63.048 97.1972 63.048Z" fill="black"/>
<path d="M112.259 57.8507H132.93V63.3599H125.243V83.3178H119.946V63.3599H112.259V57.8507Z" fill="black"/>
<path d="M155.337 83.4217C153.987 83.4217 152.896 83.0752 152.065 82.3822C151.234 81.6546 150.732 80.5632 150.559 79.1079C149.797 80.5285 148.811 81.6199 147.599 82.3822C146.387 83.1445 144.915 83.5256 143.184 83.5256C140.933 83.5256 139.116 82.9193 137.731 81.7066C136.38 80.4939 135.705 78.7614 135.705 76.5092C135.705 75.0193 135.982 73.7893 136.536 72.8191C137.125 71.8489 137.973 71.0346 139.081 70.3763C140.189 69.6833 141.539 69.0423 143.132 68.4533L150.144 65.8546C150.005 64.6419 149.503 63.8103 148.637 63.3599C147.772 62.9094 146.733 62.6842 145.521 62.6842C144.171 62.6842 143.063 62.9268 142.197 63.4118C141.332 63.8969 140.795 64.6592 140.587 65.6987H136.017C136.259 63.8276 136.83 62.2684 137.731 61.0211C138.631 59.7737 139.773 58.8555 141.158 58.2665C142.543 57.6428 144.067 57.3309 145.729 57.3309C148.637 57.3309 150.975 58.1105 152.74 59.6697C154.506 61.1943 155.372 63.5678 155.337 66.7901L155.182 75.8335C155.182 76.7691 155.32 77.4274 155.597 77.8085C155.909 78.155 156.393 78.3283 157.051 78.3283H157.83V83.3178C157.45 83.3524 157.034 83.3697 156.584 83.3697C156.134 83.4044 155.718 83.4217 155.337 83.4217ZM140.847 75.3658C140.847 76.336 141.21 77.0636 141.937 77.5487C142.699 77.9991 143.686 78.2243 144.898 78.2243C146.041 78.2243 147.079 78.0684 148.014 77.7566C148.949 77.4101 149.642 76.977 150.092 76.4572L150.196 69.4408L145.573 71.2079C143.876 71.8662 142.665 72.4899 141.937 73.0789C141.21 73.6333 140.847 74.3956 140.847 75.3658Z" fill="black"/>
<path d="M167.003 57.8507V74.6901L178.014 57.8507H183.052V83.3178H177.806V66.2704L166.743 83.3178H161.705V57.8507H167.003ZM169.34 49.5869C169.652 50.4184 170.085 51.0421 170.639 51.4579C171.193 51.8737 171.937 52.0816 172.872 52.0816C173.807 52.0816 174.551 51.8737 175.105 51.4579C175.659 51.0421 176.092 50.4184 176.404 49.5869H179.987C179.849 51.5272 179.191 53.1211 178.014 54.3684C176.871 55.5812 175.157 56.1875 172.872 56.1875C170.552 56.1875 168.821 55.5812 167.678 54.3684C166.536 53.1211 165.895 51.5272 165.757 49.5869H169.34Z" fill="black"/>
<path d="M9.45265 133.216L10.024 131.293H8.46584L0 105.826H5.71314L11.9976 125.316L18.334 105.826H23.32L13.6077 134.88C12.742 137.409 11.7206 139.228 10.5433 140.337C9.36609 141.446 7.8599 142 6.02477 142C5.26301 142 4.58783 141.931 3.9992 141.792C3.41057 141.688 2.87388 141.567 2.38913 141.428V136.023C2.83926 136.162 3.3067 136.266 3.79145 136.335C4.2762 136.404 4.79558 136.439 5.34958 136.439C6.3537 136.439 7.18471 136.196 7.84258 135.711C8.53509 135.226 9.07178 134.395 9.45265 133.216Z" fill="black"/>
<path d="M22.562 137.842V125.784H24.9512C26.5439 124.19 27.7212 121.765 28.4829 118.508C29.2447 115.216 29.6429 110.989 29.6775 105.826H46.2456V125.784H50.037V137.842H44.9472V131.293H27.6519V137.842H22.562ZM33.9883 111.284C33.9191 114.333 33.6074 117.053 33.0534 119.443C32.5341 121.834 31.6684 123.948 30.4566 125.784H40.948V111.284H33.9883Z" fill="black"/>
<path d="M71.9531 131.397C70.6027 131.397 69.512 131.051 68.681 130.358C67.85 129.63 67.348 128.539 67.1748 127.084C66.4131 128.504 65.4263 129.596 64.2144 130.358C63.0025 131.12 61.531 131.501 59.7997 131.501C57.5491 131.501 55.7313 130.895 54.3462 129.682C52.9959 128.47 52.3207 126.737 52.3207 124.485C52.3207 122.995 52.5977 121.765 53.1517 120.795C53.7403 119.825 54.5886 119.01 55.6966 118.352C56.8046 117.659 58.155 117.018 59.7478 116.429L66.7593 113.83C66.6208 112.618 66.1188 111.786 65.2531 111.336C64.3875 110.885 63.3488 110.66 62.1369 110.66C60.7865 110.66 59.6785 110.902 58.8129 111.388C57.9473 111.873 57.4106 112.635 57.2028 113.674H52.6323C52.8747 111.803 53.446 110.244 54.3462 108.997C55.2465 107.749 56.3891 106.831 57.7741 106.242C59.1591 105.618 60.6826 105.307 62.3446 105.307C65.2532 105.307 67.5903 106.086 69.3562 107.645C71.1221 109.17 71.9877 111.543 71.9531 114.766L71.7973 123.809C71.7973 124.745 71.9358 125.403 72.2128 125.784C72.5244 126.131 73.0092 126.304 73.667 126.304H74.4461V131.293C74.0652 131.328 73.6497 131.345 73.1996 131.345C72.7495 131.38 72.334 131.397 71.9531 131.397ZM57.4625 123.341C57.4625 124.312 57.8261 125.039 58.5532 125.524C59.3149 125.975 60.3018 126.2 61.5136 126.2C62.6563 126.2 63.695 126.044 64.6299 125.732C65.5648 125.386 66.2573 124.953 66.7074 124.433L66.8113 117.416L62.1888 119.184C60.4922 119.842 59.2803 120.466 58.5532 121.055C57.8261 121.609 57.4625 122.371 57.4625 123.341Z" fill="black"/>
<path d="M75.7762 125.68C75.984 125.715 76.2263 125.75 76.5033 125.784C76.815 125.819 77.1439 125.836 77.4901 125.836C78.5982 125.836 79.4118 125.23 79.9312 124.017C80.4506 122.77 80.8488 120.864 81.1258 118.3C81.2989 116.672 81.4374 114.818 81.5413 112.739C81.6798 110.66 81.7837 108.356 81.8529 105.826H98.473V131.293H93.2273V111.284H86.2676C86.233 112.566 86.1637 113.917 86.0599 115.338C85.9906 116.723 85.904 118.023 85.8002 119.236C85.5578 122.215 85.1769 124.623 84.6575 126.46C84.1382 128.262 83.411 129.578 82.4762 130.41C81.5413 131.207 80.2948 131.605 78.7366 131.605C78.1826 131.605 77.646 131.571 77.1266 131.501C76.6072 131.432 76.1571 131.328 75.7762 131.189V125.68Z" fill="black"/>
<path d="M126.923 123.186C126.576 124.745 125.936 126.183 125.001 127.499C124.066 128.781 122.802 129.821 121.209 130.618C119.651 131.415 117.712 131.813 115.392 131.813C113.038 131.813 110.943 131.241 109.108 130.098C107.307 128.955 105.888 127.378 104.849 125.368C103.845 123.359 103.343 121.089 103.343 118.56C103.343 115.996 103.862 113.726 104.901 111.751C105.94 109.742 107.359 108.165 109.16 107.022C110.995 105.878 113.107 105.307 115.496 105.307C117.885 105.307 119.98 105.878 121.781 107.022C123.581 108.13 124.984 109.69 125.988 111.699C126.992 113.709 127.494 116.065 127.494 118.768C127.494 118.872 127.477 119.062 127.442 119.339C127.442 119.582 127.442 119.755 127.442 119.859H108.589C108.796 121.973 109.506 123.619 110.718 124.797C111.965 125.975 113.557 126.564 115.496 126.564C117.262 126.564 118.682 126.252 119.755 125.628C120.863 125.005 121.66 124.19 122.144 123.186H126.923ZM115.496 110.556C113.661 110.556 112.155 111.076 110.978 112.115C109.8 113.12 109.039 114.541 108.692 116.377H122.196C121.954 114.645 121.261 113.241 120.119 112.167C119.011 111.093 117.47 110.556 115.496 110.556Z" fill="black"/>
<path d="M148.025 131.293V120.899H137.585V131.293H132.288V105.826H137.585V115.441H148.025V105.826H153.322V131.293H148.025Z" fill="black"/>
<path d="M175.414 131.293V120.899H164.974V131.293H159.677V105.826H164.974V115.441H175.414V105.826H180.711V131.293H175.414Z" fill="black"/>
<path d="M198.232 105.307C200.794 105.307 203.01 105.896 204.88 107.074C206.785 108.217 208.256 109.794 209.295 111.803C210.334 113.778 210.853 116.013 210.853 118.508C210.853 121.003 210.334 123.255 209.295 125.264C208.256 127.274 206.785 128.868 204.88 130.046C203.01 131.224 200.794 131.813 198.232 131.813C195.67 131.813 193.437 131.224 191.532 130.046C189.662 128.868 188.208 127.274 187.169 125.264C186.131 123.255 185.611 121.003 185.611 118.508C185.611 116.013 186.131 113.778 187.169 111.803C188.208 109.794 189.662 108.217 191.532 107.074C193.437 105.896 195.67 105.307 198.232 105.307ZM198.232 111.024C196.016 111.024 194.233 111.717 192.883 113.103C191.567 114.454 190.909 116.256 190.909 118.508C190.909 120.795 191.567 122.631 192.883 124.017C194.233 125.403 196.016 126.096 198.232 126.096C200.448 126.096 202.214 125.403 203.53 124.017C204.88 122.631 205.555 120.795 205.555 118.508C205.555 116.256 204.88 114.454 203.53 113.103C202.214 111.717 200.448 111.024 198.232 111.024Z" fill="black"/>
</g>
</g>
</svg>
